<svg xmlns="http://www.w3.org/2000/svg" viewBox="0 0 512 512">
	<defs>
		<style>
			#user {
				stroke: white;
				stroke-width: 20;
				stroke-linejoin: round;
			}
			
			#digits {
				fill: none;
				stroke: white;
				stroke-linecap: round;
				stroke-linejoin: round;
				stroke-width: 1.5;
			}
		</style>
	</defs>

	<g transform="translate(256, 256) scale(0.9) translate(-256, -256)">
		<g id="digits" transform="translate(370 20) scale(0.25)">
			<svg width="512" height="512" viewBox="0 0 16 16" xmlns="http://www.w3.org/2000/svg" version="1.1">
				<rect height="4.5" width="3" y="1.75" x="3.25"/>
				<path d="m9.75 6.25h3m-3-4.5h1.5v4"/>
				<rect height="4.5" width="3" y="9.75" x="9.75"/>
				<path d="m3.25 14.25h3m-3-4.5h1.5v4"/>
			</svg>
		</g>

		<g id="user">
			<g transform="translate(50, 50)">
				<path d="M391.113, 426.667H35.554v-88.892c0-22.746, 8.678-45.495, 26.039-62.848 c17.353-17.357, 40.102-26.039, 62.848-26.039h177.783c22.75, 0, 45.495, 8.678, 62.852, 26.039 c17.353, 17.353, 26.035, 40.102, 26.035, 62.848V426.667z"/>
				<circle cx="215" cy="135" r="110"/>
			</g>
		</g>
	</g>
</svg>